<svg xmlns="http://www.w3.org/2000/svg" viewBox="0 0 225 225"><defs><style>.cls-1{fill:#0096fb;}.cls-1,.cls-2{fill-rule:evenodd;}.cls-2{fill:#fff;}</style></defs><title>plugin-icon</title><polyline class="cls-1" points="107.55 44.53 129.16 81.96 136.32 69.56 137.82 66.95 133.54 59.53 155.4 59.53 149.05 70.53 149.05 70.53 140.35 85.53 140.37 85.57 135.84 93.39 156.62 129.52 159.59 134.65 165.43 124.75 165.46 124.7 168.34 119.81 168.33 119.79 184.66 91.88 212 44.53 205.69 44.53 194.7 44.53 167.34 91.88 159.78 104.97 153.15 93.44 172.72 59.53 181.39 44.53 175.08 44.53 164.09 44.53 107.55 44.53"/><path class="cls-1" d="M113.86,214.51,153.4,146,147,135.17,109.28,70.53H91.82c14,24.09,29.87,51.52,44,76L129.17,158C108,121.28,84.46,80.85,63.49,44.53H46.3q24.54,42.5,49.1,85L120.5,173l-6.64,11.51L57.58,87h0L33,44.53H15.72l49.07,85,49.07,85Z"/><path class="cls-2" d="M102.93,59.53l-8.66-15H76.77q4.33,7.5,8.68,15Z"/><path class="cls-2" d="M113.86,13.81a86.77,86.77,0,0,1,62.38,26.34h-20A80.24,80.24,0,0,0,52.3,39.31a86.78,86.78,0,0,1,61.56-25.5Z"/><path class="cls-2" d="M189.25,144.39a86.81,86.81,0,0,1-53.34,40.68L146,167.65a80.24,80.24,0,0,0,52-89.32,86.81,86.81,0,0,1-8.7,66.06Z"/><path class="cls-2" d="M38.47,144.39a86.77,86.77,0,0,1-8.56-66.53L40,95.27A80.21,80.21,0,0,0,91.34,185a86.78,86.78,0,0,1-52.87-40.56Z"/></svg>